<svg xmlns="http://www.w3.org/2000/svg" viewBox="0 0 64 80" x="0px" y="0px"><title>violin-instruments-music-orchestra</title><g><path d="M61,2H58a1,1,0,0,0-.7.281L54.454,5.04,51.707,2.293,50.293,3.707l2.724,2.724-1.612,1.56-2.7-2.7L47.293,6.707l2.675,2.675L41.25,17.818a13.455,13.455,0,0,0-17.662,3.76,1,1,0,0,0-.105.993,5.993,5.993,0,0,1-9.587,6.8,1,1,0,0,0-1.046-.2A16.992,16.992,0,1,0,34.835,51.15a1,1,0,0,0-.2-1.046,5.993,5.993,0,0,1,6.8-9.587.993.993,0,0,0,.993-.105,13.455,13.455,0,0,0,3.76-17.662l8.436-8.718,2.675,2.675,1.414-1.414-2.7-2.7,1.56-1.612,2.724,2.724,1.414-1.414L58.96,9.546,61.719,6.7A1,1,0,0,0,62,6V3A1,1,0,0,0,61,2ZM20,46.586,17.414,44,22,39.414,24.586,42ZM8.1,55.124l7.969-9.64,2.441,2.441L8.817,55.841ZM23.414,38,27,34.414,29.586,37,26,40.586Zm7.574-2.426-2.562-2.562L42.085,19.793h0L54.431,7.845l1.724,1.724ZM13.023,31.255a7.994,7.994,0,0,0,12.513-8.934A11.466,11.466,0,0,1,39.749,19.27L26.305,32.281l0,.008-.007,0L22,36.586l-.293-.293a1,1,0,0,0-1.414,1.414l.293.293-5.293,5.293c-.012.012-.016.028-.027.041s-.026.017-.037.029L6.746,53.623a14.958,14.958,0,0,1,6.277-22.368Zm31.707-7a11.468,11.468,0,0,1-3.051,14.214,7.993,7.993,0,0,0-8.934,12.513A14.954,14.954,0,0,1,10.311,57.2l10.322-8.43c.013-.01.018-.027.031-.038s.03-.016.043-.029L26,43.414l.293.293a1,1,0,0,0,1.414-1.414L27.414,42l4.293-4.293,0-.007.008-.005ZM60,5.6,57.546,8.131,55.868,6.454,58.4,4H60Z"/><path d="M7.5,45.811A2.424,2.424,0,0,0,8.43,46a2.462,2.462,0,0,0,2.128-1.234l4.309-7.837a.611.611,0,0,1,.717-.271.607.607,0,0,1,.352.846l-.172.343,1.789.9.172-.345a2.607,2.607,0,0,0-4.6-2.452l-4.31,7.836a.437.437,0,0,1-.769-.415l.312-.625L6.57,41.847l-.312.625A2.438,2.438,0,0,0,7.5,45.811Z"/><path d="M27.391,46.2a2.6,2.6,0,0,0-2.162.076l-.344.172.892,1.79.345-.173a.608.608,0,0,1,.847.352.609.609,0,0,1-.269.715L19.509,53.26a2.437,2.437,0,0,0,2.312,4.289l.626-.313-.894-1.789-.626.313a.43.43,0,0,1-.347.019.441.441,0,0,1-.252-.241.437.437,0,0,1,.181-.546l7.19-4.129a2.607,2.607,0,0,0-.308-4.664Z"/></g><text x="0" y="79" fill="#000000" font-size="5px" font-weight="bold" font-family="'Helvetica Neue', Helvetica, Arial-Unicode, Arial, Sans-serif">Created by monkik</text><text x="0" y="84" fill="#000000" font-size="5px" font-weight="bold" font-family="'Helvetica Neue', Helvetica, Arial-Unicode, Arial, Sans-serif">from the Noun Project</text></svg>