<svg xmlns="http://www.w3.org/2000/svg" viewBox="0 0 64 80" x="0px" y="0px"><title>drum-music-musical-instruments</title><g><path d="M32,30A14,14,0,1,0,46,44,14.015,14.015,0,0,0,32,30Zm0,26A12,12,0,1,1,44,44,12.013,12.013,0,0,1,32,56Z"/><path d="M60.615,17.923a1,1,0,1,0,.77-1.846L50,11.333V10h7a1,1,0,0,0,1-1,5.006,5.006,0,0,0-5-5H50V2H48V4H45a5.006,5.006,0,0,0-5,5,1,1,0,0,0,1,1h7v2a1,1,0,0,0,.615.923L52,14.333V26H49V19a1,1,0,0,0-1-1H36a1,1,0,0,0-1,1v3H29V19a1,1,0,0,0-1-1H16a1,1,0,0,0-1,1v7H12V14.333l3.385-1.41A1,1,0,0,0,16,12V10h7a1,1,0,0,0,1-1,5.006,5.006,0,0,0-5-5H16V2H14V4H11A5.006,5.006,0,0,0,6,9a1,1,0,0,0,1,1h7v1.333L2.615,16.077a1,1,0,0,0,.77,1.846L10,15.167V26H5a1,1,0,0,0-1,1V46.7L2.168,49.445A1.006,1.006,0,0,0,2,50V60a.976.976,0,0,0,.154.5.986.986,0,0,0,.139,1.2,1,1,0,0,0,1.414,0L11,54.414,13.586,57l-3.293,3.293a1,1,0,1,0,1.414,1.414L15,58.414l3.293,3.293a1,1,0,0,0,1.414-1.414L16.414,57l1.64-1.64a18.113,18.113,0,0,0,3.954,3.6c0,.014-.008.025-.008.039v2a1,1,0,0,0,2,0v-.9a17.8,17.8,0,0,0,16,0V61a1,1,0,0,0,2,0V59c0-.014-.007-.025-.008-.039a18.113,18.113,0,0,0,3.954-3.6L47.586,57l-3.293,3.293a1,1,0,0,0,1.414,1.414L49,58.414l3.293,3.293a1,1,0,0,0,1.414-1.414L50.414,57,53,54.414l7.292,7.292A1,1,0,0,0,62,61V50a1.006,1.006,0,0,0-.168-.555L60,46.7V27a1,1,0,0,0-1-1H54V15.167ZM45,6h8a3.006,3.006,0,0,1,2.829,2H42.171A3.006,3.006,0,0,1,45,6ZM11,6h8a3.006,3.006,0,0,1,2.829,2H8.171A3.006,3.006,0,0,1,11,6ZM60,58.586l-6-6V40h4v7a1.006,1.006,0,0,0,.168.555L60,50.3ZM58,38H54V32h4Zm-6,0H48.973a17.9,17.9,0,0,0-1.091-2.454c-.041-.077-.083-.153-.125-.229A17.846,17.846,0,0,0,45.991,32.7c-.068-.083-.134-.166-.2-.249-.128-.152-.258-.3-.392-.45H52Zm-8-8V28h8v2Zm-1-4a1,1,0,0,0-1,1v2.044c-.016-.011-.033-.019-.048-.03q-.573-.378-1.174-.713c-.291-.164-.592-.309-.893-.457-.141-.069-.281-.14-.425-.205-.338-.155-.681-.3-1.029-.431-.094-.036-.188-.069-.283-.1-.378-.139-.758-.271-1.148-.384V24H47v2Zm-10,.051V24h2v2.271A17.8,17.8,0,0,0,33,26.051ZM29,24h2v2.051a17.8,17.8,0,0,0-2,.22Zm18-4v2H37V20ZM27,20v2H17V20ZM17,24H27v2.721c-.39.113-.77.245-1.149.384-.094.034-.188.067-.282.1-.348.134-.691.276-1.029.431-.143.065-.284.136-.425.205-.3.147-.6.293-.893.457q-.6.335-1.173.713c-.016.011-.033.019-.049.03V27a1,1,0,0,0-1-1H17Zm.867,8.889c-.088.113-.171.229-.257.344-.267.355-.523.717-.764,1.092-.015.023-.028.047-.043.071A17.852,17.852,0,0,0,14.118,42H12V32h6.618c-.019.021-.035.042-.053.063C18.325,32.332,18.091,32.6,17.867,32.889ZM6,32h4V42H6Zm10-4h4v2H12V28Zm-6,0v2H6V28ZM5.832,47.555A1.006,1.006,0,0,0,6,47V44h4v8.586l-6,6V50.3ZM15,55.586l-3-3V44h2a17.869,17.869,0,0,0,2.871,9.715ZM32,60A16.019,16.019,0,0,1,16,44c0-.316.029-.624.047-.936l0-.005q.048-.819.175-1.616l0-.024c.078-.49.184-.972.306-1.448.019-.072.036-.145.056-.217.108-.4.238-.79.377-1.178.052-.144.1-.289.158-.431.121-.31.258-.612.4-.913.093-.2.185-.4.286-.594.127-.244.266-.482.406-.72.131-.223.262-.447.4-.663s.3-.427.449-.637.306-.423.469-.626c.184-.228.381-.446.577-.664.149-.165.293-.334.449-.493.255-.261.526-.508.8-.753.133-.119.259-.246.4-.36a15.619,15.619,0,0,1,1.395-1.043c.036-.024.075-.043.111-.067a16.221,16.221,0,0,1,1.446-.838c.058-.029.117-.055.175-.084a15.858,15.858,0,0,1,1.513-.658l.135-.05a15.943,15.943,0,0,1,10.932,0l.135.05a15.987,15.987,0,0,1,1.514.658c.057.029.116.055.174.084a16.221,16.221,0,0,1,1.446.838c.036.024.075.043.111.067a15.619,15.619,0,0,1,1.4,1.043q.519.434,1,.908c.09.089.173.184.261.275.24.249.474.5.7.767.091.108.18.216.268.326.242.3.474.608.693.926.043.061.089.121.131.183q.4.591.74,1.217c.037.067.07.137.106.205.186.35.358.709.519,1.075.046.107.093.213.137.321.168.406.321.818.455,1.239.011.035.024.067.035.1A16,16,0,0,1,32,60Zm15.129-6.285A17.76,17.76,0,0,0,49.536,40H52V52.586l-3,3ZM58,28v2H54V28Z"/></g><text x="0" y="79" fill="#000000" font-size="5px" font-weight="bold" font-family="'Helvetica Neue', Helvetica, Arial-Unicode, Arial, Sans-serif">Created by monkik</text><text x="0" y="84" fill="#000000" font-size="5px" font-weight="bold" font-family="'Helvetica Neue', Helvetica, Arial-Unicode, Arial, Sans-serif">from the Noun Project</text></svg>