<svg xmlns="http://www.w3.org/2000/svg" viewBox="0 0 64 80" x="0px" y="0px"><title>music-note-song-musical-quaver</title><g><path d="M49,35A11,11,0,1,0,59.908,47.418.991.991,0,0,0,60,47V3a1,1,0,0,0-1.148-.989l-40,6A1,1,0,0,0,18,9V40.417A11,11,0,1,0,26,51V21.867l26-3.714V35.417A10.926,10.926,0,0,0,49,35Zm4.655-18.755a1,1,0,0,0-.8-.235l-28,4A1,1,0,0,0,24,21V51a9.009,9.009,0,1,1-5.4-8.246,1,1,0,0,0,1.4-.916V9.861l38-5.7V46.687a1,1,0,0,0-.045.214A9.008,9.008,0,1,1,52.6,37.754a1,1,0,0,0,1.4-.916V17A1,1,0,0,0,53.655,16.245Z"/></g><text x="0" y="79" fill="#000000" font-size="5px" font-weight="bold" font-family="'Helvetica Neue', Helvetica, Arial-Unicode, Arial, Sans-serif">Created by monkik</text><text x="0" y="84" fill="#000000" font-size="5px" font-weight="bold" font-family="'Helvetica Neue', Helvetica, Arial-Unicode, Arial, Sans-serif">from the Noun Project</text></svg>