<svg xmlns="http://www.w3.org/2000/svg" xmlns:xlink="http://www.w3.org/1999/xlink" xml:space="preserve" version="1.1" style="shape-rendering:geometricPrecision;text-rendering:geometricPrecision;image-rendering:optimizeQuality;" viewBox="0 0 311 57.5" x="0px" y="0px" fill-rule="evenodd" clip-rule="evenodd"><defs><style type="text/css">
   
    .fil0 {fill:black;fill-rule:nonzero}
   
  </style></defs><g><path class="fil0" d="M23 0l265 0c30,0 30,46 0,46l-265 0c-31,0 -31,-46 0,-46zm265 3l-265 0c-26,0 -26,40 0,40l265 0c26,0 26,-40 0,-40z"/><path class="fil0" d="M293 26l6 6c1,1 -1,4 -2,2l-7 -6c-3,3 -8,2 -11,-1 -4,-4 -4,-9 -1,-13 4,-4 10,-4 14,0 3,3 3,8 1,12zm-12 -10c-2,3 -2,6 0,9 2,2 6,2 8,0 3,-3 3,-6 0,-9 -2,-2 -6,-2 -8,0z"/></g><text x="0" y="61" fill="#000000" font-size="5px" font-weight="bold" font-family="'Helvetica Neue', Helvetica, Arial-Unicode, Arial, Sans-serif">Created by OneShoot</text><text x="0" y="66" fill="#000000" font-size="5px" font-weight="bold" font-family="'Helvetica Neue', Helvetica, Arial-Unicode, Arial, Sans-serif">from the Noun Project</text></svg>