<svg xmlns="http://www.w3.org/2000/svg" viewBox="0 0 64 80" x="0px" y="0px"><title>mute-volume-music-song-sound</title><g><path d="M32,62a29.907,29.907,0,0,0,21.628-9.242.854.854,0,0,0,.088-.06.826.826,0,0,0,.065-.1A29.978,29.978,0,1,0,32,62ZM60,32a27.879,27.879,0,0,1-7.053,18.552L43,40.847V9a1,1,0,0,0-1.681-.733L27.607,21h-4.95l-9.72-9.483A27.98,27.98,0,0,1,60,32ZM28,32a1,1,0,0,0-1,1v6H19V23h2.843L37,37.787v10.39l-8-8.571V33A1,1,0,0,0,28,32Zm-3.293-9H28a1,1,0,0,0,.681-.267L37,15.007V34.993ZM39,50V39.739l2,1.951V52.463l-2.053-2.2A.968.968,0,0,0,39,50Zm0-13.056V13.15l2-1.857V38.9ZM11.523,12.931,19.793,21H18a1,1,0,0,0-1,1V40a1,1,0,0,0,1,1h9.565l13.7,14.682A1,1,0,0,0,43,55V43.641L51.569,52a27.981,27.981,0,0,1-40.046-39.07Z"/></g><text x="0" y="79" fill="#000000" font-size="5px" font-weight="bold" font-family="'Helvetica Neue', Helvetica, Arial-Unicode, Arial, Sans-serif">Created by monkik</text><text x="0" y="84" fill="#000000" font-size="5px" font-weight="bold" font-family="'Helvetica Neue', Helvetica, Arial-Unicode, Arial, Sans-serif">from the Noun Project</text></svg>