<svg xmlns="http://www.w3.org/2000/svg" viewBox="0 0 64 80" x="0px" y="0px"><title>piano-orchestra-instruments-music</title><g><path d="M9.867,48H54.133l2,14H62V28.936A10.949,10.949,0,0,0,51.064,18H47a15.072,15.072,0,0,1-12-6L32.6,8.8A17,17,0,0,0,2,19V62H7.867ZM60,60H57.867L56.153,48H60ZM4,19a15,15,0,0,1,27-9l2.4,3.2A17.081,17.081,0,0,0,47,20h4.064A8.947,8.947,0,0,1,60,28.936V34H4ZM60,36v2H4V36ZM4,40H7v4H9V40h2v4h2V40h2v4h2V40h2v4h2V40h2v4h2V40h2v4h2V40h2v4h2V40h2v4h2V40h2v4h2V40h2v4h2V40h2v4h2V40h2v4h2V40h2v4h2V40h3v6H4ZM6.133,60H4V48H7.847Z"/><path d="M16.249,8.346A11.091,11.091,0,0,1,19,8V6a13.045,13.045,0,0,0-3.249.41Z"/><path d="M6,19v2H8V19a11.044,11.044,0,0,1,5.5-9.529l-1-1.731A13.046,13.046,0,0,0,6,19Z"/></g><text x="0" y="79" fill="#000000" font-size="5px" font-weight="bold" font-family="'Helvetica Neue', Helvetica, Arial-Unicode, Arial, Sans-serif">Created by monkik</text><text x="0" y="84" fill="#000000" font-size="5px" font-weight="bold" font-family="'Helvetica Neue', Helvetica, Arial-Unicode, Arial, Sans-serif">from the Noun Project</text></svg>