<svg xmlns="http://www.w3.org/2000/svg" viewBox="0 0 64 80" x="0px" y="0px"><title>cloud-music-play-song</title><g><path d="M55.725,22.077A8,8,0,0,0,48,12a7.892,7.892,0,0,0-2.482.4,13.988,13.988,0,0,0-26.933-.375c-.2-.014-.394-.021-.585-.021A10.011,10.011,0,0,0,8,22c0,.067,0,.135,0,.2A11,11,0,0,0,13,43h4V41H13A9,9,0,0,1,9.437,23.736l.666-.287-.066-.721C10.016,22.487,10,22.246,10,22a8.009,8.009,0,0,1,8-8,7.869,7.869,0,0,1,1.187.1l.917.136.206-.9a11.987,11.987,0,0,1,23.5.619l.231,1.344,1.212-.625A5.933,5.933,0,0,1,48,14a5.995,5.995,0,0,1,5.556,8.259l-.388.954.966.36A8.994,8.994,0,0,1,51,41H49v2h2a10.994,10.994,0,0,0,4.725-20.923Z"/><rect x="27" y="41" width="12" height="2"/><path d="M39,62a8.009,8.009,0,0,0,8-8V19.743L19,26.205V46.256A7.9,7.9,0,0,0,17,46a8,8,0,1,0,8,8V34.8l16-3.555V46.256A7.9,7.9,0,0,0,39,46a8,8,0,0,0,0,16Zm0-14a5.943,5.943,0,0,1,2.57.585l1.43.681V28.753L23,33.2V54a6,6,0,1,1-6-6,5.943,5.943,0,0,1,2.57.585l1.43.681V27.8l24-5.538V54a6,6,0,1,1-6-6Z"/></g><text x="0" y="79" fill="#000000" font-size="5px" font-weight="bold" font-family="'Helvetica Neue', Helvetica, Arial-Unicode, Arial, Sans-serif">Created by monkik</text><text x="0" y="84" fill="#000000" font-size="5px" font-weight="bold" font-family="'Helvetica Neue', Helvetica, Arial-Unicode, Arial, Sans-serif">from the Noun Project</text></svg>