<svg xmlns="http://www.w3.org/2000/svg" viewBox="0 0 64 80" x="0px" y="0px"><title>guitar-instruments-music</title><g><path d="M14.707,41.293a1,1,0,0,0-1.414,0l-3,3a1,1,0,0,0,0,1.414l8,8a1,1,0,0,0,1.414,0l3-3a1,1,0,0,0,0-1.414ZM19,51.586,12.414,45,14,43.414,20.586,50Z"/><path d="M58.414,3a3.5,3.5,0,0,0-4.828,0L53,3.586,51.707,2.293,50.293,3.707,51.586,5,50,6.586,48.707,5.293,47.293,6.707,48.626,8.04A3.384,3.384,0,0,0,48,10a3.512,3.512,0,0,0,.052.534L34.72,23.866l-.82-.82a6.984,6.984,0,0,0-9.878,0l-2.813,2.813a12.945,12.945,0,0,1-6.247,3.463l-1.37.316A14.953,14.953,0,0,0,6.38,54.782L9.218,57.62a14.954,14.954,0,0,0,25.144-7.211l.317-1.371a12.935,12.935,0,0,1,3.462-6.247l2.813-2.813a6.993,6.993,0,0,0,0-9.878l-.82-.82L53.466,15.948A3.512,3.512,0,0,0,54,16a3.381,3.381,0,0,0,1.959-.626l1.334,1.333,1.414-1.414L57.414,14,59,12.414l1.293,1.293,1.414-1.414L60.414,11,61,10.415a3.415,3.415,0,0,0,0-4.829ZM51.586,15,33.333,33.253a5.981,5.981,0,0,0-2.586-2.586L49,12.414ZM30.828,33.171a4,4,0,0,1,0,5.658,4.1,4.1,0,0,1-5.656,0,4,4,0,0,1,5.656-5.658Zm8.712-1.657a4.992,4.992,0,0,1,0,7.05l-2.813,2.813a14.939,14.939,0,0,0-4,7.211l-.316,1.371a12.953,12.953,0,0,1-21.781,6.247L7.794,53.368a12.954,12.954,0,0,1,6.247-21.782l1.37-.315a14.941,14.941,0,0,0,7.212-4l2.814-2.813a4.984,4.984,0,0,1,7.049,0l.82.82-4.747,4.747C28.374,30.01,28.188,30,28,30a6,6,0,1,0,6,6c0-.188-.01-.374-.027-.559l4.747-4.747ZM53,13.586,50.414,11a1.415,1.415,0,0,1,0-2L55,4.415a1.414,1.414,0,0,1,2,0L59.586,7a1.415,1.415,0,0,1,0,2L55,13.585A1.447,1.447,0,0,1,53,13.586Z"/></g><text x="0" y="79" fill="#000000" font-size="5px" font-weight="bold" font-family="'Helvetica Neue', Helvetica, Arial-Unicode, Arial, Sans-serif">Created by monkik</text><text x="0" y="84" fill="#000000" font-size="5px" font-weight="bold" font-family="'Helvetica Neue', Helvetica, Arial-Unicode, Arial, Sans-serif">from the Noun Project</text></svg>