<svg xmlns="http://www.w3.org/2000/svg" viewBox="0 0 64 80" x="0px" y="0px"><title>volume-music-song-sound</title><g><path d="M3,43h9.57l17.7,18.688A1,1,0,0,0,32,61V3a1,1,0,0,0-1.726-.688L12.57,21H3a1,1,0,0,0-1,1V42A1,1,0,0,0,3,43ZM30,58.49l-2.063-2.177A.991.991,0,0,0,28,56V8a.991.991,0,0,0-.063-.313L30,5.51ZM4,23h9a1,1,0,0,0,.726-.312L26,9.732V54.268L14,41.6V26a1,1,0,0,0-2,0V41H4Z"/><path d="M51.8,10.787a1,1,0,0,0,0,1.414,28,28,0,0,1,0,39.6,1,1,0,1,0,1.414,1.414,30,30,0,0,0,0-42.426A1,1,0,0,0,51.8,10.787Z"/><path d="M45.436,46.849a1,1,0,0,0,1.414,0,21,21,0,0,0,0-29.7,1,1,0,0,0-1.414,1.414,19,19,0,0,1,0,26.87A1,1,0,0,0,45.436,46.849Z"/><path d="M39.071,40.485a1,1,0,0,0,1.414,0,12,12,0,0,0,0-16.97,1,1,0,0,0-1.414,1.414,10,10,0,0,1,0,14.142A1,1,0,0,0,39.071,40.485Z"/></g><text x="0" y="79" fill="#000000" font-size="5px" font-weight="bold" font-family="'Helvetica Neue', Helvetica, Arial-Unicode, Arial, Sans-serif">Created by monkik</text><text x="0" y="84" fill="#000000" font-size="5px" font-weight="bold" font-family="'Helvetica Neue', Helvetica, Arial-Unicode, Arial, Sans-serif">from the Noun Project</text></svg>